<?xml version="1.0" encoding="UTF-8" standalone="no"?>
<!-- Created with Inkscape (http://www.inkscape.org/) -->

<svg
   width="206.44925mm"
   height="169.79498mm"
   viewBox="0 0 206.44925 169.79498"
   version="1.1"
   id="svg1"
   xmlns="http://www.w3.org/2000/svg"
   xmlns:svg="http://www.w3.org/2000/svg">
  <defs
     id="defs1" />
  <g
     id="layer1"
     transform="translate(-1.5292179,-56.026265)">
    <g
       id="g3"
       transform="matrix(2.0114747,0,0,2.0114747,-112.94113,-184.48309)">
      <g
         id="g8-4"
         transform="matrix(0.86552535,0,0,0.86552535,13.879081,75.060391)">
        <rect
           style="fill:#ffd1ff;fill-opacity:1;stroke-width:0.209072;stroke-dasharray:none"
           id="rect1-1-8"
           width="66.084831"
           height="66.084831"
           x="146.24355"
           y="24.575661"
           transform="matrix(0.89442719,0.4472136,-0.89442719,0.4472136,0,0)" />
        <rect
           style="fill:#8c5aa0;fill-opacity:1;stroke-width:0.195726"
           id="rect2-0"
           width="66.057922"
           height="13.520124"
           x="56.230804"
           y="80.563423"
           transform="matrix(0.893694,0.44867699,0,1,0,0)" />
        <rect
           style="fill:#e9b8fc;fill-opacity:1;stroke-width:0.196001"
           id="rect2-37-8"
           width="65.972672"
           height="13.575694"
           x="-188.07317"
           y="189.78409"
           transform="matrix(-0.89484877,0.44636945,0,1,0,0)" />
      </g>
      <g
         id="g1-4"
         transform="translate(1.1213378,85.334055)">
        <g
           id="g65-7"
           transform="translate(-12.911441,-69.133253)">
          <rect
             style="fill:#646464;fill-opacity:1;stroke-width:0.017302"
             id="rect60-2"
             width="5.4663444"
             height="5.4663444"
             x="197.7253"
             y="68.278267"
             transform="matrix(0.89442719,0.4472136,-0.89442719,0.4472136,0,0)" />
          <rect
             style="fill:#323232;fill-opacity:1;stroke-width:0.279831"
             id="rect61-7"
             width="5.4591413"
             height="11.082631"
             x="-134.9183"
             y="181.86244"
             transform="matrix(-0.89399129,0.44808434,0,1,0,0)" />
          <rect
             style="fill:#000000;fill-opacity:1;stroke-width:0.279831"
             id="rect62-2"
             width="5.4591413"
             height="11.082631"
             x="124.01147"
             y="65.784286"
             transform="matrix(0.89399129,0.44808434,0,1,0,0)" />
          <rect
             style="fill:#ffd800;fill-opacity:1;stroke-width:0.0068037"
             id="rect63-2"
             width="2.1495433"
             height="2.1495433"
             x="180.30774"
             y="50.829842"
             transform="matrix(0.89442719,0.44721359,-0.89442719,0.44721359,0,0)" />
          <rect
             style="fill:#998200;fill-opacity:1;stroke-width:0.218802"
             id="rect64-6"
             width="2.1446621"
             height="17.247313"
             x="-131.49496"
             y="163.01025"
             transform="matrix(-0.89484514,0.44637672,0,1,0,0)" />
          <rect
             style="fill:#4d4100;fill-opacity:1;stroke-width:0.218704"
             id="rect65-1"
             width="2.1405985"
             height="17.264595"
             x="127.01607"
             y="48.07634"
             transform="matrix(0.8965439,0.44295489,0,1,0,0)" />
        </g>
        <g
           id="g136-0"
           transform="translate(-19.526024,-65.825961)">
          <rect
             style="fill:#646464;fill-opacity:1;stroke-width:0.017302"
             id="rect131-6"
             width="5.4663444"
             height="5.4663444"
             x="197.7253"
             y="68.278267"
             transform="matrix(0.89442719,0.4472136,-0.89442719,0.4472136,0,0)" />
          <rect
             style="fill:#323232;fill-opacity:1;stroke-width:0.279831"
             id="rect132-1"
             width="5.4591413"
             height="11.082631"
             x="-134.9183"
             y="181.86244"
             transform="matrix(-0.89399129,0.44808434,0,1,0,0)" />
          <rect
             style="fill:#000000;fill-opacity:1;stroke-width:0.279831"
             id="rect133-5"
             width="5.4591413"
             height="11.082631"
             x="124.01147"
             y="65.784286"
             transform="matrix(0.89399129,0.44808434,0,1,0,0)" />
          <rect
             style="fill:#ffd800;fill-opacity:1;stroke-width:0.0068037"
             id="rect134-9"
             width="2.1495433"
             height="2.1495433"
             x="180.30774"
             y="50.829842"
             transform="matrix(0.89442719,0.44721359,-0.89442719,0.44721359,0,0)" />
          <rect
             style="fill:#998200;fill-opacity:1;stroke-width:0.218802"
             id="rect135-4"
             width="2.1446621"
             height="17.247313"
             x="-131.49496"
             y="163.01025"
             transform="matrix(-0.89484514,0.44637672,0,1,0,0)" />
          <rect
             style="fill:#4d4100;fill-opacity:1;stroke-width:0.218704"
             id="rect136-9"
             width="2.1405985"
             height="17.264595"
             x="127.01607"
             y="48.07634"
             transform="matrix(0.8965439,0.44295489,0,1,0,0)" />
        </g>
        <g
           id="g142-0"
           transform="translate(-26.140607,-62.518669)">
          <rect
             style="fill:#646464;fill-opacity:1;stroke-width:0.017302"
             id="rect137-9"
             width="5.4663444"
             height="5.4663444"
             x="197.7253"
             y="68.278267"
             transform="matrix(0.89442719,0.4472136,-0.89442719,0.4472136,0,0)" />
          <rect
             style="fill:#323232;fill-opacity:1;stroke-width:0.279831"
             id="rect138-1"
             width="5.4591413"
             height="11.082631"
             x="-134.9183"
             y="181.86244"
             transform="matrix(-0.89399129,0.44808434,0,1,0,0)" />
          <rect
             style="fill:#000000;fill-opacity:1;stroke-width:0.279831"
             id="rect139-7"
             width="5.4591413"
             height="11.082631"
             x="124.01147"
             y="65.784286"
             transform="matrix(0.89399129,0.44808434,0,1,0,0)" />
          <rect
             style="fill:#ffd800;fill-opacity:1;stroke-width:0.0068037"
             id="rect140-7"
             width="2.1495433"
             height="2.1495433"
             x="180.30774"
             y="50.829842"
             transform="matrix(0.89442719,0.44721359,-0.89442719,0.44721359,0,0)" />
          <rect
             style="fill:#998200;fill-opacity:1;stroke-width:0.218802"
             id="rect141-1"
             width="2.1446621"
             height="17.247313"
             x="-131.49496"
             y="163.01025"
             transform="matrix(-0.89484514,0.44637672,0,1,0,0)" />
          <rect
             style="fill:#4d4100;fill-opacity:1;stroke-width:0.218704"
             id="rect142-1"
             width="2.1405985"
             height="17.264595"
             x="127.01607"
             y="48.07634"
             transform="matrix(0.8965439,0.44295489,0,1,0,0)" />
        </g>
        <g
           id="g148-5"
           transform="translate(-32.75519,-59.211377)">
          <rect
             style="fill:#646464;fill-opacity:1;stroke-width:0.017302"
             id="rect143-9"
             width="5.4663444"
             height="5.4663444"
             x="197.7253"
             y="68.278267"
             transform="matrix(0.89442719,0.4472136,-0.89442719,0.4472136,0,0)" />
          <rect
             style="fill:#323232;fill-opacity:1;stroke-width:0.279831"
             id="rect144-7"
             width="5.4591413"
             height="11.082631"
             x="-134.9183"
             y="181.86244"
             transform="matrix(-0.89399129,0.44808434,0,1,0,0)" />
          <rect
             style="fill:#000000;fill-opacity:1;stroke-width:0.279831"
             id="rect145-7"
             width="5.4591413"
             height="11.082631"
             x="124.01147"
             y="65.784286"
             transform="matrix(0.89399129,0.44808434,0,1,0,0)" />
          <rect
             style="fill:#ffd800;fill-opacity:1;stroke-width:0.0068037"
             id="rect146-6"
             width="2.1495433"
             height="2.1495433"
             x="180.30774"
             y="50.829842"
             transform="matrix(0.89442719,0.44721359,-0.89442719,0.44721359,0,0)" />
          <rect
             style="fill:#998200;fill-opacity:1;stroke-width:0.218802"
             id="rect147-7"
             width="2.1446621"
             height="17.247313"
             x="-131.49496"
             y="163.01025"
             transform="matrix(-0.89484514,0.44637672,0,1,0,0)" />
          <rect
             style="fill:#4d4100;fill-opacity:1;stroke-width:0.218704"
             id="rect148-3"
             width="2.1405985"
             height="17.264595"
             x="127.01607"
             y="48.07634"
             transform="matrix(0.8965439,0.44295489,0,1,0,0)" />
        </g>
        <g
           id="g154-6"
           transform="translate(-39.369773,-55.904085)">
          <rect
             style="fill:#646464;fill-opacity:1;stroke-width:0.017302"
             id="rect149-5"
             width="5.4663444"
             height="5.4663444"
             x="197.7253"
             y="68.278267"
             transform="matrix(0.89442719,0.4472136,-0.89442719,0.4472136,0,0)" />
          <rect
             style="fill:#323232;fill-opacity:1;stroke-width:0.279831"
             id="rect150-6"
             width="5.4591413"
             height="11.082631"
             x="-134.9183"
             y="181.86244"
             transform="matrix(-0.89399129,0.44808434,0,1,0,0)" />
          <rect
             style="fill:#000000;fill-opacity:1;stroke-width:0.279831"
             id="rect151-3"
             width="5.4591413"
             height="11.082631"
             x="124.01147"
             y="65.784286"
             transform="matrix(0.89399129,0.44808434,0,1,0,0)" />
          <rect
             style="fill:#ffd800;fill-opacity:1;stroke-width:0.0068037"
             id="rect152-9"
             width="2.1495433"
             height="2.1495433"
             x="180.30774"
             y="50.829842"
             transform="matrix(0.89442719,0.44721359,-0.89442719,0.44721359,0,0)" />
          <rect
             style="fill:#998200;fill-opacity:1;stroke-width:0.218802"
             id="rect153-4"
             width="2.1446621"
             height="17.247313"
             x="-131.49496"
             y="163.01025"
             transform="matrix(-0.89484514,0.44637672,0,1,0,0)" />
          <rect
             style="fill:#4d4100;fill-opacity:1;stroke-width:0.218704"
             id="rect154-8"
             width="2.1405985"
             height="17.264595"
             x="127.01607"
             y="48.07634"
             transform="matrix(0.8965439,0.44295489,0,1,0,0)" />
        </g>
        <g
           id="g160-1"
           transform="translate(-45.984356,-52.596793)">
          <rect
             style="fill:#646464;fill-opacity:1;stroke-width:0.017302"
             id="rect155-2"
             width="5.4663444"
             height="5.4663444"
             x="197.7253"
             y="68.278267"
             transform="matrix(0.89442719,0.4472136,-0.89442719,0.4472136,0,0)" />
          <rect
             style="fill:#323232;fill-opacity:1;stroke-width:0.279831"
             id="rect156-9"
             width="5.4591413"
             height="11.082631"
             x="-134.9183"
             y="181.86244"
             transform="matrix(-0.89399129,0.44808434,0,1,0,0)" />
          <rect
             style="fill:#000000;fill-opacity:1;stroke-width:0.279831"
             id="rect157-3"
             width="5.4591413"
             height="11.082631"
             x="124.01147"
             y="65.784286"
             transform="matrix(0.89399129,0.44808434,0,1,0,0)" />
          <rect
             style="fill:#ffd800;fill-opacity:1;stroke-width:0.0068037"
             id="rect158-9"
             width="2.1495433"
             height="2.1495433"
             x="180.30774"
             y="50.829842"
             transform="matrix(0.89442719,0.44721359,-0.89442719,0.44721359,0,0)" />
          <rect
             style="fill:#998200;fill-opacity:1;stroke-width:0.218802"
             id="rect159-0"
             width="2.1446621"
             height="17.247313"
             x="-131.49496"
             y="163.01025"
             transform="matrix(-0.89484514,0.44637672,0,1,0,0)" />
          <rect
             style="fill:#4d4100;fill-opacity:1;stroke-width:0.218704"
             id="rect160-8"
             width="2.1405985"
             height="17.264595"
             x="127.01607"
             y="48.07634"
             transform="matrix(0.8965439,0.44295489,0,1,0,0)" />
        </g>
      </g>
      <g
         id="g9-4-5-5-6-33"
         transform="matrix(0.07688435,0,0,0.07688435,133.80857,162.54862)">
        <rect
           style="fill:#c8c8c8;fill-opacity:1;stroke-width:0.107816"
           id="rect1-1-6-8-2-4-87-8"
           width="34.062988"
           height="34.062988"
           x="157.69283"
           y="35.45472"
           transform="matrix(0.89442719,0.4472136,-0.89442719,0.4472136,0,0)" />
        <rect
           style="fill:#646464;fill-opacity:1;stroke-width:0.094211"
           id="rect2-1-0-9-4-9-05"
           width="34.03149"
           height="6.0802808"
           x="88.201355"
           y="62.109825"
           transform="matrix(0.89415698,0.4477536,0,1,0,0)" />
        <rect
           style="fill:#969696;fill-opacity:1;stroke-width:0.094211"
           id="rect2-3-8-4-0-9-0-66"
           width="34.03149"
           height="6.0802808"
           x="-156.2384"
           y="171.54012"
           transform="matrix(-0.89415698,0.4477536,0,1,0,0)" />
      </g>
      <g
         id="g9-4-5-5-6-3"
         transform="matrix(0.07688435,0,0,0.07688435,127.45857,167.31112)">
        <rect
           style="fill:#c8c8c8;fill-opacity:1;stroke-width:0.107816"
           id="rect1-1-6-8-2-4-87-4"
           width="34.062988"
           height="34.062988"
           x="157.69283"
           y="35.45472"
           transform="matrix(0.89442719,0.4472136,-0.89442719,0.4472136,0,0)" />
        <rect
           style="fill:#646464;fill-opacity:1;stroke-width:0.094211"
           id="rect2-1-0-9-4-9-03"
           width="34.03149"
           height="6.0802808"
           x="88.201355"
           y="62.109825"
           transform="matrix(0.89415698,0.4477536,0,1,0,0)" />
        <rect
           style="fill:#969696;fill-opacity:1;stroke-width:0.094211"
           id="rect2-3-8-4-0-9-0-9"
           width="34.03149"
           height="6.0802808"
           x="-156.2384"
           y="171.54012"
           transform="matrix(-0.89415698,0.4477536,0,1,0,0)" />
      </g>
      <g
         id="g9-4-5-5-6-62"
         transform="matrix(0.07688435,0,0,0.07688435,123.75442,164.13612)">
        <rect
           style="fill:#c8c8c8;fill-opacity:1;stroke-width:0.107816"
           id="rect1-1-6-8-2-4-87-99"
           width="34.062988"
           height="34.062988"
           x="157.69283"
           y="35.45472"
           transform="matrix(0.89442719,0.4472136,-0.89442719,0.4472136,0,0)" />
        <rect
           style="fill:#646464;fill-opacity:1;stroke-width:0.094211"
           id="rect2-1-0-9-4-9-08"
           width="34.03149"
           height="6.0802808"
           x="88.201355"
           y="62.109825"
           transform="matrix(0.89415698,0.4477536,0,1,0,0)" />
        <rect
           style="fill:#969696;fill-opacity:1;stroke-width:0.094211"
           id="rect2-3-8-4-0-9-0-1"
           width="34.03149"
           height="6.0802808"
           x="-156.2384"
           y="171.54012"
           transform="matrix(-0.89415698,0.4477536,0,1,0,0)" />
      </g>
      <g
         id="g9-4-5-5-6-6"
         transform="matrix(0.07688435,0,0,0.07688435,98.354416,178.15904)">
        <rect
           style="fill:#c8c8c8;fill-opacity:1;stroke-width:0.107816"
           id="rect1-1-6-8-2-4-87-2"
           width="34.062988"
           height="34.062988"
           x="157.69283"
           y="35.45472"
           transform="matrix(0.89442719,0.4472136,-0.89442719,0.4472136,0,0)" />
        <rect
           style="fill:#646464;fill-opacity:1;stroke-width:0.094211"
           id="rect2-1-0-9-4-9-8"
           width="34.03149"
           height="6.0802808"
           x="88.201355"
           y="62.109825"
           transform="matrix(0.89415698,0.4477536,0,1,0,0)" />
        <rect
           style="fill:#969696;fill-opacity:1;stroke-width:0.094211"
           id="rect2-3-8-4-0-9-0-4"
           width="34.03149"
           height="6.0802808"
           x="-156.2384"
           y="171.54012"
           transform="matrix(-0.89415698,0.4477536,0,1,0,0)" />
      </g>
      <g
         id="g9-4-5-5-6-8"
         transform="matrix(0.07688435,0,0,0.07688435,77.452328,167.84029)">
        <rect
           style="fill:#c8c8c8;fill-opacity:1;stroke-width:0.107816"
           id="rect1-1-6-8-2-4-87-5"
           width="34.062988"
           height="34.062988"
           x="157.69283"
           y="35.45472"
           transform="matrix(0.89442719,0.4472136,-0.89442719,0.4472136,0,0)" />
        <rect
           style="fill:#646464;fill-opacity:1;stroke-width:0.094211"
           id="rect2-1-0-9-4-9-0"
           width="34.03149"
           height="6.0802808"
           x="88.201355"
           y="62.109825"
           transform="matrix(0.89415698,0.4477536,0,1,0,0)" />
        <rect
           style="fill:#969696;fill-opacity:1;stroke-width:0.094211"
           id="rect2-3-8-4-0-9-0-64"
           width="34.03149"
           height="6.0802808"
           x="-156.2384"
           y="171.54012"
           transform="matrix(-0.89415698,0.4477536,0,1,0,0)" />
      </g>
      <g
         id="g9-4-5-50-0"
         transform="matrix(0.21844495,0,0,0.21844495,74.02319,158.25837)">
        <rect
           style="fill:#c8c8c8;fill-opacity:1;stroke-width:0.107816"
           id="rect1-1-6-8-2-2-2"
           width="34.062988"
           height="34.062988"
           x="157.69283"
           y="35.45472"
           transform="matrix(0.89442719,0.4472136,-0.89442719,0.4472136,0,0)" />
        <rect
           style="fill:#646464;fill-opacity:1;stroke-width:0.094211"
           id="rect2-1-0-9-9-1"
           width="34.03149"
           height="6.0802808"
           x="88.201355"
           y="62.109825"
           transform="matrix(0.89415698,0.4477536,0,1,0,0)" />
        <rect
           style="fill:#969696;fill-opacity:1;stroke-width:0.094211"
           id="rect2-3-8-4-0-4-0"
           width="34.03149"
           height="6.0802808"
           x="-156.2384"
           y="171.54012"
           transform="matrix(-0.89415698,0.4477536,0,1,0,0)" />
      </g>
      <g
         id="g9-1-3-0"
         transform="matrix(0.15661427,0,0,0.15661427,59.679313,154.6131)">
        <rect
           style="fill:#c8c8c8;fill-opacity:1;stroke-width:0.107816"
           id="rect1-1-6-0-5-9"
           width="34.062988"
           height="34.062988"
           x="157.69283"
           y="35.45472"
           transform="matrix(0.89442719,0.4472136,-0.89442719,0.4472136,0,0)" />
        <rect
           style="fill:#646464;fill-opacity:1;stroke-width:0.141058"
           id="rect2-1-2-6-2"
           width="34.144718"
           height="13.585376"
           x="88.49482"
           y="61.241215"
           transform="matrix(0.89119181,0.45362668,0,1,0,0)" />
        <rect
           style="fill:#969696;fill-opacity:1;stroke-width:0.141058"
           id="rect2-1-2-1-2-5"
           width="34.144718"
           height="13.585376"
           x="-156.63564"
           y="172.41902"
           transform="matrix(-0.89119181,0.45362668,0,1,0,0)" />
      </g>
      <g
         id="g9-1-3-8"
         transform="matrix(0.15661427,0,0,0.15661427,105.01157,160.97282)">
        <rect
           style="fill:#c8c8c8;fill-opacity:1;stroke-width:0.107816"
           id="rect1-1-6-0-5-8"
           width="34.062988"
           height="34.062988"
           x="157.69283"
           y="35.45472"
           transform="matrix(0.89442719,0.4472136,-0.89442719,0.4472136,0,0)" />
        <rect
           style="fill:#646464;fill-opacity:1;stroke-width:0.141058"
           id="rect2-1-2-6-97"
           width="34.144718"
           height="13.585376"
           x="88.49482"
           y="61.241215"
           transform="matrix(0.89119181,0.45362668,0,1,0,0)" />
        <rect
           style="fill:#969696;fill-opacity:1;stroke-width:0.141058"
           id="rect2-1-2-1-2-76"
           width="34.144718"
           height="13.585376"
           x="-156.63564"
           y="172.41902"
           transform="matrix(-0.89119181,0.45362668,0,1,0,0)" />
      </g>
      <g
         id="g9-1-3-3"
         transform="matrix(0.15661427,0,0,0.15661427,129.90186,147.98878)">
        <rect
           style="fill:#c8c8c8;fill-opacity:1;stroke-width:0.107816"
           id="rect1-1-6-0-5-3"
           width="34.062988"
           height="34.062988"
           x="157.69283"
           y="35.45472"
           transform="matrix(0.89442719,0.4472136,-0.89442719,0.4472136,0,0)" />
        <rect
           style="fill:#646464;fill-opacity:1;stroke-width:0.141058"
           id="rect2-1-2-6-3"
           width="34.144718"
           height="13.585376"
           x="88.49482"
           y="61.241215"
           transform="matrix(0.89119181,0.45362668,0,1,0,0)" />
        <rect
           style="fill:#969696;fill-opacity:1;stroke-width:0.141058"
           id="rect2-1-2-1-2-8"
           width="34.144718"
           height="13.585376"
           x="-156.63564"
           y="172.41902"
           transform="matrix(-0.89119181,0.45362668,0,1,0,0)" />
      </g>
      <g
         id="g9-4-5-5-6-626"
         transform="matrix(0.07688435,0,0,0.07688435,131.16275,152.75904)">
        <rect
           style="fill:#c8c8c8;fill-opacity:1;stroke-width:0.107816"
           id="rect1-1-6-8-2-4-87-7"
           width="34.062988"
           height="34.062988"
           x="157.69283"
           y="35.45472"
           transform="matrix(0.89442719,0.4472136,-0.89442719,0.4472136,0,0)" />
        <rect
           style="fill:#646464;fill-opacity:1;stroke-width:0.094211"
           id="rect2-1-0-9-4-9-5"
           width="34.03149"
           height="6.0802808"
           x="88.201355"
           y="62.109825"
           transform="matrix(0.89415698,0.4477536,0,1,0,0)" />
        <rect
           style="fill:#969696;fill-opacity:1;stroke-width:0.094211"
           id="rect2-3-8-4-0-9-0-69"
           width="34.03149"
           height="6.0802808"
           x="-156.2384"
           y="171.54012"
           transform="matrix(-0.89415698,0.4477536,0,1,0,0)" />
      </g>
      <g
         id="g9-1-3-5"
         transform="matrix(1.0084829,0,0,1.0084829,-2.2754434,51.286148)">
        <rect
           style="fill:#c8c8c8;fill-opacity:1;stroke-width:0.107816"
           id="rect1-1-6-0-5-6"
           width="34.062988"
           height="34.062988"
           x="157.69283"
           y="35.45472"
           transform="matrix(0.89442719,0.4472136,-0.89442719,0.4472136,0,0)" />
        <rect
           style="fill:#646464;fill-opacity:1;stroke-width:0.141058"
           id="rect2-1-2-6-93"
           width="34.144718"
           height="13.585376"
           x="88.49482"
           y="61.241215"
           transform="matrix(0.89119181,0.45362668,0,1,0,0)" />
        <rect
           style="fill:#969696;fill-opacity:1;stroke-width:0.141058"
           id="rect2-1-2-1-2-7"
           width="34.144718"
           height="13.585376"
           x="-156.63564"
           y="172.41902"
           transform="matrix(-0.89119181,0.45362668,0,1,0,0)" />
      </g>
      <text
         xml:space="preserve"
         style="font-style:normal;font-variant:normal;font-weight:800;font-stretch:normal;font-size:33.4671px;font-family:'JetBrains Mono';-inkscape-font-specification:'JetBrains Mono, Ultra-Bold';font-variant-ligatures:normal;font-variant-caps:normal;font-variant-numeric:normal;font-variant-east-asian:normal;writing-mode:lr-tb;direction:ltr;fill:#404040;fill-opacity:1;stroke-width:0.591466;stroke-dasharray:none"
         x="209.94531"
         y="103.64918"
         id="text168-5-6"
         transform="matrix(0.95876986,0.51555592,-1.1349594,0.43270548,0,0)"><tspan
           id="tspan169"
           x="209.94531"
           y="103.64918"
           style="stroke-width:0.591466">V</tspan></text>
      <ellipse
         style="fill:#404040;fill-opacity:1;stroke-width:0.509799;stroke-dasharray:none"
         id="path168-1"
         cx="113.38055"
         cy="159.49086"
         transform="rotate(1.72703)"
         rx="4.3353543"
         ry="1.8580092" />
    </g>
  </g>
</svg>
