<?xml version="1.0" encoding="UTF-8" standalone="no"?>
<!-- Created with Inkscape (http://www.inkscape.org/) -->

<svg
   width="210mm"
   height="297mm"
   viewBox="0 0 210 297"
   version="1.1"
   id="svg1"
   inkscape:version="1.4.4 (dcaf3e7d9e, 2026-05-05)"
   sodipodi:docname="logo_idea.svg"
   xmlns:inkscape="http://www.inkscape.org/namespaces/inkscape"
   xmlns:sodipodi="http://sodipodi.sourceforge.net/DTD/sodipodi-0.dtd"
   xmlns="http://www.w3.org/2000/svg"
   xmlns:svg="http://www.w3.org/2000/svg">
  <sodipodi:namedview
     id="namedview1"
     pagecolor="#ffffff"
     bordercolor="#000000"
     borderopacity="0.25"
     inkscape:showpageshadow="2"
     inkscape:pageopacity="0.0"
     inkscape:pagecheckerboard="0"
     inkscape:deskcolor="#d1d1d1"
     inkscape:document-units="mm"
     inkscape:zoom="1.1274147"
     inkscape:cx="442.60554"
     inkscape:cy="452.80586"
     inkscape:window-width="1737"
     inkscape:window-height="1016"
     inkscape:window-x="0"
     inkscape:window-y="0"
     inkscape:window-maximized="0"
     inkscape:current-layer="layer1" />
  <defs
     id="defs1" />
  <g
     inkscape:label="Layer 1"
     inkscape:groupmode="layer"
     id="layer1">
    <g
       id="g8"
       transform="translate(0.28566461,-26.392672)">
      <rect
         style="fill:#ffd1ff;fill-opacity:1;stroke-width:0.20907235;stroke-dasharray:none"
         id="rect1-1"
         width="66.084831"
         height="66.084831"
         x="146.24355"
         y="24.575661"
         transform="matrix(0.89442719,0.4472136,-0.89442719,0.4472136,0,0)" />
      <rect
         style="fill:#8c5aa0;fill-opacity:1;stroke-width:0.115131"
         id="rect2"
         width="65.966827"
         height="4.6845436"
         x="55.701004"
         y="81.208351"
         transform="matrix(0.8949281,0.44621036,0,1,0,0)" />
      <rect
         style="fill:#e9b8fc;fill-opacity:1;stroke-width:0.115131"
         id="rect2-37"
         width="65.966827"
         height="4.6845436"
         x="-187.60422"
         y="189.67982"
         transform="matrix(-0.8949281,0.44621036,0,1,0,0)" />
    </g>
    <g
       id="g9-4-5-5-4-3"
       transform="matrix(0.07688435,0,0,0.07688435,116.17395,88.079699)">
      <rect
         style="fill:#c8c8c8;fill-opacity:1;stroke-width:0.107816"
         id="rect1-1-6-8-2-4-3-6"
         width="34.062988"
         height="34.062988"
         x="157.69283"
         y="35.45472"
         transform="matrix(0.89442719,0.4472136,-0.89442719,0.4472136,0,0)" />
      <rect
         style="fill:#646464;fill-opacity:1;stroke-width:0.094211"
         id="rect2-1-0-9-4-1-1"
         width="34.03149"
         height="6.0802808"
         x="88.201355"
         y="62.109825"
         transform="matrix(0.89415698,0.4477536,0,1,0,0)" />
      <rect
         style="fill:#969696;fill-opacity:1;stroke-width:0.094211"
         id="rect2-3-8-4-0-9-4-2"
         width="34.03149"
         height="6.0802808"
         x="-156.2384"
         y="171.54012"
         transform="matrix(-0.89415698,0.4477536,0,1,0,0)" />
    </g>
    <g
       id="g9-1-3-7"
       transform="matrix(0.05119105,0,0,0.05119105,119.78777,86.594875)">
      <rect
         style="fill:#c8c8c8;fill-opacity:1;stroke-width:0.107816"
         id="rect1-1-6-0-5-5"
         width="34.062988"
         height="34.062988"
         x="157.69283"
         y="35.45472"
         transform="matrix(0.89442719,0.4472136,-0.89442719,0.4472136,0,0)" />
      <rect
         style="fill:#646464;fill-opacity:1;stroke-width:0.141058"
         id="rect2-1-2-6-9"
         width="34.144718"
         height="13.585376"
         x="88.49482"
         y="61.241215"
         transform="matrix(0.89119181,0.45362668,0,1,0,0)" />
      <rect
         style="fill:#969696;fill-opacity:1;stroke-width:0.141058"
         id="rect2-1-2-1-2-2"
         width="34.144718"
         height="13.585376"
         x="-156.63564"
         y="172.41902"
         transform="matrix(-0.89119181,0.45362668,0,1,0,0)" />
    </g>
    <g
       id="g9-4-5-5-6-0"
       transform="matrix(0.07688435,0,0,0.07688435,91.295486,87.520018)">
      <rect
         style="fill:#c8c8c8;fill-opacity:1;stroke-width:0.107816"
         id="rect1-1-6-8-2-4-87-9"
         width="34.062988"
         height="34.062988"
         x="157.69283"
         y="35.45472"
         transform="matrix(0.89442719,0.4472136,-0.89442719,0.4472136,0,0)" />
      <rect
         style="fill:#646464;fill-opacity:1;stroke-width:0.094211"
         id="rect2-1-0-9-4-9-3"
         width="34.03149"
         height="6.0802808"
         x="88.201355"
         y="62.109825"
         transform="matrix(0.89415698,0.4477536,0,1,0,0)" />
      <rect
         style="fill:#969696;fill-opacity:1;stroke-width:0.094211"
         id="rect2-3-8-4-0-9-0-6"
         width="34.03149"
         height="6.0802808"
         x="-156.2384"
         y="171.54012"
         transform="matrix(-0.89415698,0.4477536,0,1,0,0)" />
    </g>
    <g
       id="g9-4-5-5-28-4"
       transform="matrix(0.07688435,0,0,0.07688435,111.14687,56.065116)">
      <rect
         style="fill:#c8c8c8;fill-opacity:1;stroke-width:0.107816"
         id="rect1-1-6-8-2-4-8-9"
         width="34.062988"
         height="34.062988"
         x="157.69283"
         y="35.45472"
         transform="matrix(0.89442719,0.4472136,-0.89442719,0.4472136,0,0)" />
      <rect
         style="fill:#646464;fill-opacity:1;stroke-width:0.094211"
         id="rect2-1-0-9-4-8-2"
         width="34.03149"
         height="6.0802808"
         x="88.201355"
         y="62.109825"
         transform="matrix(0.89415698,0.4477536,0,1,0,0)" />
      <rect
         style="fill:#969696;fill-opacity:1;stroke-width:0.094211"
         id="rect2-3-8-4-0-9-6-5"
         width="34.03149"
         height="6.0802808"
         x="-156.2384"
         y="171.54012"
         transform="matrix(-0.89415698,0.4477536,0,1,0,0)" />
    </g>
    <g
       id="g9-4-5-5-28-3"
       transform="matrix(0.07688435,0,0,0.07688435,139.72187,65.325533)">
      <rect
         style="fill:#c8c8c8;fill-opacity:1;stroke-width:0.107816"
         id="rect1-1-6-8-2-4-8-0"
         width="34.062988"
         height="34.062988"
         x="157.69283"
         y="35.45472"
         transform="matrix(0.89442719,0.4472136,-0.89442719,0.4472136,0,0)" />
      <rect
         style="fill:#646464;fill-opacity:1;stroke-width:0.094211"
         id="rect2-1-0-9-4-8-1"
         width="34.03149"
         height="6.0802808"
         x="88.201355"
         y="62.109825"
         transform="matrix(0.89415698,0.4477536,0,1,0,0)" />
      <rect
         style="fill:#969696;fill-opacity:1;stroke-width:0.094211"
         id="rect2-3-8-4-0-9-6-7"
         width="34.03149"
         height="6.0802808"
         x="-156.2384"
         y="171.54012"
         transform="matrix(-0.89415698,0.4477536,0,1,0,0)" />
    </g>
    <g
       id="g9-4-6"
       transform="matrix(0.15408159,0,0,0.15408159,113.5253,49.132373)">
      <rect
         style="fill:#c8c8c8;fill-opacity:1;stroke-width:0.107816"
         id="rect1-1-6-8-24"
         width="34.062988"
         height="34.062988"
         x="157.69283"
         y="35.45472"
         transform="matrix(0.89442719,0.4472136,-0.89442719,0.4472136,0,0)" />
      <rect
         style="fill:#646464;fill-opacity:1;stroke-width:0.094211"
         id="rect2-1-0-7"
         width="34.03149"
         height="6.0802808"
         x="88.201355"
         y="62.109825"
         transform="matrix(0.89415698,0.4477536,0,1,0,0)" />
      <rect
         style="fill:#969696;fill-opacity:1;stroke-width:0.094211"
         id="rect2-3-8-4-9"
         width="34.03149"
         height="6.0802808"
         x="-156.2384"
         y="171.54012"
         transform="matrix(-0.89415698,0.4477536,0,1,0,0)" />
    </g>
    <g
       id="g9-4-0"
       transform="matrix(0.15408159,0,0,0.15408159,68.81072,75.061539)">
      <rect
         style="fill:#c8c8c8;fill-opacity:1;stroke-width:0.107816"
         id="rect1-1-6-8-4"
         width="34.062988"
         height="34.062988"
         x="157.69283"
         y="35.45472"
         transform="matrix(0.89442719,0.4472136,-0.89442719,0.4472136,0,0)" />
      <rect
         style="fill:#646464;fill-opacity:1;stroke-width:0.094211"
         id="rect2-1-0-1"
         width="34.03149"
         height="6.0802808"
         x="88.201355"
         y="62.109825"
         transform="matrix(0.89415698,0.4477536,0,1,0,0)" />
      <rect
         style="fill:#969696;fill-opacity:1;stroke-width:0.094211"
         id="rect2-3-8-4-04"
         width="34.03149"
         height="6.0802808"
         x="-156.2384"
         y="171.54012"
         transform="matrix(-0.89415698,0.4477536,0,1,0,0)" />
    </g>
    <g
       id="g9-4-5-5-4"
       transform="matrix(0.07688435,0,0,0.07688435,130.46145,81.200533)">
      <rect
         style="fill:#c8c8c8;fill-opacity:1;stroke-width:0.107816"
         id="rect1-1-6-8-2-4-3"
         width="34.062988"
         height="34.062988"
         x="157.69283"
         y="35.45472"
         transform="matrix(0.89442719,0.4472136,-0.89442719,0.4472136,0,0)" />
      <rect
         style="fill:#646464;fill-opacity:1;stroke-width:0.094211"
         id="rect2-1-0-9-4-1"
         width="34.03149"
         height="6.0802808"
         x="88.201355"
         y="62.109825"
         transform="matrix(0.89415698,0.4477536,0,1,0,0)" />
      <rect
         style="fill:#969696;fill-opacity:1;stroke-width:0.094211"
         id="rect2-3-8-4-0-9-4"
         width="34.03149"
         height="6.0802808"
         x="-156.2384"
         y="171.54012"
         transform="matrix(-0.89415698,0.4477536,0,1,0,0)" />
    </g>
    <g
       id="g9-4-5-5"
       transform="matrix(0.07688435,0,0,0.07688435,127.50479,78.571662)">
      <rect
         style="fill:#c8c8c8;fill-opacity:1;stroke-width:0.107816"
         id="rect1-1-6-8-2-4"
         width="34.062988"
         height="34.062988"
         x="157.69283"
         y="35.45472"
         transform="matrix(0.89442719,0.4472136,-0.89442719,0.4472136,0,0)" />
      <rect
         style="fill:#646464;fill-opacity:1;stroke-width:0.094211"
         id="rect2-1-0-9-4"
         width="34.03149"
         height="6.0802808"
         x="88.201355"
         y="62.109825"
         transform="matrix(0.89415698,0.4477536,0,1,0,0)" />
      <rect
         style="fill:#969696;fill-opacity:1;stroke-width:0.094211"
         id="rect2-3-8-4-0-9"
         width="34.03149"
         height="6.0802808"
         x="-156.2384"
         y="171.54012"
         transform="matrix(-0.89415698,0.4477536,0,1,0,0)" />
    </g>
    <g
       id="g9-4-5-50"
       transform="matrix(0.21844495,0,0,0.21844495,120.88055,61.883483)">
      <rect
         style="fill:#c8c8c8;fill-opacity:1;stroke-width:0.107816"
         id="rect1-1-6-8-2-2"
         width="34.062988"
         height="34.062988"
         x="157.69283"
         y="35.45472"
         transform="matrix(0.89442719,0.4472136,-0.89442719,0.4472136,0,0)" />
      <rect
         style="fill:#646464;fill-opacity:1;stroke-width:0.094211"
         id="rect2-1-0-9-9"
         width="34.03149"
         height="6.0802808"
         x="88.201355"
         y="62.109825"
         transform="matrix(0.89415698,0.4477536,0,1,0,0)" />
      <rect
         style="fill:#969696;fill-opacity:1;stroke-width:0.094211"
         id="rect2-3-8-4-0-4"
         width="34.03149"
         height="6.0802808"
         x="-156.2384"
         y="171.54012"
         transform="matrix(-0.89415698,0.4477536,0,1,0,0)" />
    </g>
    <g
       id="g7-7"
       transform="translate(-6.2968576,-72.440545)">
      <rect
         style="fill:#646464;fill-opacity:1;stroke-width:0.017302"
         id="rect1-1-6-2-8"
         width="5.4663444"
         height="5.4663444"
         x="197.7253"
         y="68.278267"
         transform="matrix(0.89442719,0.4472136,-0.89442719,0.4472136,0,0)" />
      <rect
         style="fill:#323232;fill-opacity:1;stroke-width:0.279831"
         id="rect7-8-4"
         width="5.4591413"
         height="11.082631"
         x="-134.9183"
         y="181.86244"
         transform="matrix(-0.89399129,0.44808434,0,1,0,0)" />
      <rect
         style="fill:#000000;fill-opacity:1;stroke-width:0.279831"
         id="rect7-5"
         width="5.4591413"
         height="11.082631"
         x="124.01147"
         y="65.784286"
         transform="matrix(0.89399129,0.44808434,0,1,0,0)" />
      <rect
         style="fill:#ffd800;fill-opacity:1;stroke-width:0.0068037"
         id="rect1-1-6-2-1-0"
         width="2.1495433"
         height="2.1495433"
         x="180.30774"
         y="50.829842"
         transform="matrix(0.89442719,0.44721359,-0.89442719,0.44721359,0,0)" />
      <rect
         style="fill:#998200;fill-opacity:1;stroke-width:0.218802"
         id="rect7-8-2-3"
         width="2.1446621"
         height="17.247313"
         x="-131.49496"
         y="163.01025"
         transform="matrix(-0.89484514,0.44637672,0,1,0,0)" />
      <rect
         style="fill:#4d4100;fill-opacity:1;stroke-width:0.218704"
         id="rect7-9-6"
         width="2.1405985"
         height="17.264595"
         x="127.01607"
         y="48.07634"
         transform="matrix(0.8965439,0.44295489,0,1,0,0)" />
    </g>
    <g
       id="g65"
       transform="translate(-12.911441,-69.133253)">
      <rect
         style="fill:#646464;fill-opacity:1;stroke-width:0.017302"
         id="rect60"
         width="5.4663444"
         height="5.4663444"
         x="197.7253"
         y="68.278267"
         transform="matrix(0.89442719,0.4472136,-0.89442719,0.4472136,0,0)" />
      <rect
         style="fill:#323232;fill-opacity:1;stroke-width:0.279831"
         id="rect61"
         width="5.4591413"
         height="11.082631"
         x="-134.9183"
         y="181.86244"
         transform="matrix(-0.89399129,0.44808434,0,1,0,0)" />
      <rect
         style="fill:#000000;fill-opacity:1;stroke-width:0.279831"
         id="rect62"
         width="5.4591413"
         height="11.082631"
         x="124.01147"
         y="65.784286"
         transform="matrix(0.89399129,0.44808434,0,1,0,0)" />
      <rect
         style="fill:#ffd800;fill-opacity:1;stroke-width:0.0068037"
         id="rect63"
         width="2.1495433"
         height="2.1495433"
         x="180.30774"
         y="50.829842"
         transform="matrix(0.89442719,0.44721359,-0.89442719,0.44721359,0,0)" />
      <rect
         style="fill:#998200;fill-opacity:1;stroke-width:0.218802"
         id="rect64"
         width="2.1446621"
         height="17.247313"
         x="-131.49496"
         y="163.01025"
         transform="matrix(-0.89484514,0.44637672,0,1,0,0)" />
      <rect
         style="fill:#4d4100;fill-opacity:1;stroke-width:0.218704"
         id="rect65"
         width="2.1405985"
         height="17.264595"
         x="127.01607"
         y="48.07634"
         transform="matrix(0.8965439,0.44295489,0,1,0,0)" />
    </g>
    <g
       id="g136"
       transform="translate(-19.526024,-65.825961)">
      <rect
         style="fill:#646464;fill-opacity:1;stroke-width:0.017302"
         id="rect131"
         width="5.4663444"
         height="5.4663444"
         x="197.7253"
         y="68.278267"
         transform="matrix(0.89442719,0.4472136,-0.89442719,0.4472136,0,0)" />
      <rect
         style="fill:#323232;fill-opacity:1;stroke-width:0.279831"
         id="rect132"
         width="5.4591413"
         height="11.082631"
         x="-134.9183"
         y="181.86244"
         transform="matrix(-0.89399129,0.44808434,0,1,0,0)" />
      <rect
         style="fill:#000000;fill-opacity:1;stroke-width:0.279831"
         id="rect133"
         width="5.4591413"
         height="11.082631"
         x="124.01147"
         y="65.784286"
         transform="matrix(0.89399129,0.44808434,0,1,0,0)" />
      <rect
         style="fill:#ffd800;fill-opacity:1;stroke-width:0.0068037"
         id="rect134"
         width="2.1495433"
         height="2.1495433"
         x="180.30774"
         y="50.829842"
         transform="matrix(0.89442719,0.44721359,-0.89442719,0.44721359,0,0)" />
      <rect
         style="fill:#998200;fill-opacity:1;stroke-width:0.218802"
         id="rect135"
         width="2.1446621"
         height="17.247313"
         x="-131.49496"
         y="163.01025"
         transform="matrix(-0.89484514,0.44637672,0,1,0,0)" />
      <rect
         style="fill:#4d4100;fill-opacity:1;stroke-width:0.218704"
         id="rect136"
         width="2.1405985"
         height="17.264595"
         x="127.01607"
         y="48.07634"
         transform="matrix(0.8965439,0.44295489,0,1,0,0)" />
    </g>
    <g
       id="g142"
       transform="translate(-26.140607,-62.518669)">
      <rect
         style="fill:#646464;fill-opacity:1;stroke-width:0.017302"
         id="rect137"
         width="5.4663444"
         height="5.4663444"
         x="197.7253"
         y="68.278267"
         transform="matrix(0.89442719,0.4472136,-0.89442719,0.4472136,0,0)" />
      <rect
         style="fill:#323232;fill-opacity:1;stroke-width:0.279831"
         id="rect138"
         width="5.4591413"
         height="11.082631"
         x="-134.9183"
         y="181.86244"
         transform="matrix(-0.89399129,0.44808434,0,1,0,0)" />
      <rect
         style="fill:#000000;fill-opacity:1;stroke-width:0.279831"
         id="rect139"
         width="5.4591413"
         height="11.082631"
         x="124.01147"
         y="65.784286"
         transform="matrix(0.89399129,0.44808434,0,1,0,0)" />
      <rect
         style="fill:#ffd800;fill-opacity:1;stroke-width:0.0068037"
         id="rect140"
         width="2.1495433"
         height="2.1495433"
         x="180.30774"
         y="50.829842"
         transform="matrix(0.89442719,0.44721359,-0.89442719,0.44721359,0,0)" />
      <rect
         style="fill:#998200;fill-opacity:1;stroke-width:0.218802"
         id="rect141"
         width="2.1446621"
         height="17.247313"
         x="-131.49496"
         y="163.01025"
         transform="matrix(-0.89484514,0.44637672,0,1,0,0)" />
      <rect
         style="fill:#4d4100;fill-opacity:1;stroke-width:0.218704"
         id="rect142"
         width="2.1405985"
         height="17.264595"
         x="127.01607"
         y="48.07634"
         transform="matrix(0.8965439,0.44295489,0,1,0,0)" />
    </g>
    <g
       id="g148"
       transform="translate(-32.75519,-59.211377)">
      <rect
         style="fill:#646464;fill-opacity:1;stroke-width:0.017302"
         id="rect143"
         width="5.4663444"
         height="5.4663444"
         x="197.7253"
         y="68.278267"
         transform="matrix(0.89442719,0.4472136,-0.89442719,0.4472136,0,0)" />
      <rect
         style="fill:#323232;fill-opacity:1;stroke-width:0.279831"
         id="rect144"
         width="5.4591413"
         height="11.082631"
         x="-134.9183"
         y="181.86244"
         transform="matrix(-0.89399129,0.44808434,0,1,0,0)" />
      <rect
         style="fill:#000000;fill-opacity:1;stroke-width:0.279831"
         id="rect145"
         width="5.4591413"
         height="11.082631"
         x="124.01147"
         y="65.784286"
         transform="matrix(0.89399129,0.44808434,0,1,0,0)" />
      <rect
         style="fill:#ffd800;fill-opacity:1;stroke-width:0.0068037"
         id="rect146"
         width="2.1495433"
         height="2.1495433"
         x="180.30774"
         y="50.829842"
         transform="matrix(0.89442719,0.44721359,-0.89442719,0.44721359,0,0)" />
      <rect
         style="fill:#998200;fill-opacity:1;stroke-width:0.218802"
         id="rect147"
         width="2.1446621"
         height="17.247313"
         x="-131.49496"
         y="163.01025"
         transform="matrix(-0.89484514,0.44637672,0,1,0,0)" />
      <rect
         style="fill:#4d4100;fill-opacity:1;stroke-width:0.218704"
         id="rect148"
         width="2.1405985"
         height="17.264595"
         x="127.01607"
         y="48.07634"
         transform="matrix(0.8965439,0.44295489,0,1,0,0)" />
    </g>
    <g
       id="g154"
       transform="translate(-39.369773,-55.904085)">
      <rect
         style="fill:#646464;fill-opacity:1;stroke-width:0.017302"
         id="rect149"
         width="5.4663444"
         height="5.4663444"
         x="197.7253"
         y="68.278267"
         transform="matrix(0.89442719,0.4472136,-0.89442719,0.4472136,0,0)" />
      <rect
         style="fill:#323232;fill-opacity:1;stroke-width:0.279831"
         id="rect150"
         width="5.4591413"
         height="11.082631"
         x="-134.9183"
         y="181.86244"
         transform="matrix(-0.89399129,0.44808434,0,1,0,0)" />
      <rect
         style="fill:#000000;fill-opacity:1;stroke-width:0.279831"
         id="rect151"
         width="5.4591413"
         height="11.082631"
         x="124.01147"
         y="65.784286"
         transform="matrix(0.89399129,0.44808434,0,1,0,0)" />
      <rect
         style="fill:#ffd800;fill-opacity:1;stroke-width:0.0068037"
         id="rect152"
         width="2.1495433"
         height="2.1495433"
         x="180.30774"
         y="50.829842"
         transform="matrix(0.89442719,0.44721359,-0.89442719,0.44721359,0,0)" />
      <rect
         style="fill:#998200;fill-opacity:1;stroke-width:0.218802"
         id="rect153"
         width="2.1446621"
         height="17.247313"
         x="-131.49496"
         y="163.01025"
         transform="matrix(-0.89484514,0.44637672,0,1,0,0)" />
      <rect
         style="fill:#4d4100;fill-opacity:1;stroke-width:0.218704"
         id="rect154"
         width="2.1405985"
         height="17.264595"
         x="127.01607"
         y="48.07634"
         transform="matrix(0.8965439,0.44295489,0,1,0,0)" />
    </g>
    <g
       id="g160"
       transform="translate(-45.984356,-52.596793)">
      <rect
         style="fill:#646464;fill-opacity:1;stroke-width:0.017302"
         id="rect155"
         width="5.4663444"
         height="5.4663444"
         x="197.7253"
         y="68.278267"
         transform="matrix(0.89442719,0.4472136,-0.89442719,0.4472136,0,0)" />
      <rect
         style="fill:#323232;fill-opacity:1;stroke-width:0.279831"
         id="rect156"
         width="5.4591413"
         height="11.082631"
         x="-134.9183"
         y="181.86244"
         transform="matrix(-0.89399129,0.44808434,0,1,0,0)" />
      <rect
         style="fill:#000000;fill-opacity:1;stroke-width:0.279831"
         id="rect157"
         width="5.4591413"
         height="11.082631"
         x="124.01147"
         y="65.784286"
         transform="matrix(0.89399129,0.44808434,0,1,0,0)" />
      <rect
         style="fill:#ffd800;fill-opacity:1;stroke-width:0.0068037"
         id="rect158"
         width="2.1495433"
         height="2.1495433"
         x="180.30774"
         y="50.829842"
         transform="matrix(0.89442719,0.44721359,-0.89442719,0.44721359,0,0)" />
      <rect
         style="fill:#998200;fill-opacity:1;stroke-width:0.218802"
         id="rect159"
         width="2.1446621"
         height="17.247313"
         x="-131.49496"
         y="163.01025"
         transform="matrix(-0.89484514,0.44637672,0,1,0,0)" />
      <rect
         style="fill:#4d4100;fill-opacity:1;stroke-width:0.218704"
         id="rect160"
         width="2.1405985"
         height="17.264595"
         x="127.01607"
         y="48.07634"
         transform="matrix(0.8965439,0.44295489,0,1,0,0)" />
    </g>
    <g
       id="g166"
       transform="translate(-45.984356,-52.596793)">
      <rect
         style="fill:#646464;fill-opacity:1;stroke-width:0.017302"
         id="rect161"
         width="5.4663444"
         height="5.4663444"
         x="197.7253"
         y="68.278267"
         transform="matrix(0.89442719,0.4472136,-0.89442719,0.4472136,0,0)" />
      <rect
         style="fill:#323232;fill-opacity:1;stroke-width:0.279831"
         id="rect162"
         width="5.4591413"
         height="11.082631"
         x="-134.9183"
         y="181.86244"
         transform="matrix(-0.89399129,0.44808434,0,1,0,0)" />
      <rect
         style="fill:#000000;fill-opacity:1;stroke-width:0.279831"
         id="rect163"
         width="5.4591413"
         height="11.082631"
         x="124.01147"
         y="65.784286"
         transform="matrix(0.89399129,0.44808434,0,1,0,0)" />
      <rect
         style="fill:#ffd800;fill-opacity:1;stroke-width:0.0068037"
         id="rect164"
         width="2.1495433"
         height="2.1495433"
         x="180.30774"
         y="50.829842"
         transform="matrix(0.89442719,0.44721359,-0.89442719,0.44721359,0,0)" />
      <rect
         style="fill:#998200;fill-opacity:1;stroke-width:0.218802"
         id="rect165"
         width="2.1446621"
         height="17.247313"
         x="-131.49496"
         y="163.01025"
         transform="matrix(-0.89484514,0.44637672,0,1,0,0)" />
      <rect
         style="fill:#4d4100;fill-opacity:1;stroke-width:0.218704"
         id="rect166"
         width="2.1405985"
         height="17.264595"
         x="127.01607"
         y="48.07634"
         transform="matrix(0.8965439,0.44295489,0,1,0,0)" />
    </g>
    <g
       id="g9"
       transform="translate(0.28566462,-26.392672)">
      <rect
         style="fill:#c8c8c8;fill-opacity:1;stroke-width:0.107816"
         id="rect1-1-6"
         width="34.062988"
         height="34.062988"
         x="157.69283"
         y="35.45472"
         transform="matrix(0.89442719,0.4472136,-0.89442719,0.4472136,0,0)" />
      <rect
         style="fill:#646464;fill-opacity:1;stroke-width:0.094211"
         id="rect2-1"
         width="34.03149"
         height="6.0802808"
         x="88.201355"
         y="62.109825"
         transform="matrix(0.89415698,0.4477536,0,1,0,0)" />
      <rect
         style="fill:#969696;fill-opacity:1;stroke-width:0.094211"
         id="rect2-3-8"
         width="34.03149"
         height="6.0802808"
         x="-156.2384"
         y="171.54012"
         transform="matrix(-0.89415698,0.4477536,0,1,0,0)" />
    </g>
    <g
       id="g9-4"
       transform="matrix(0.15408159,0,0,0.15408159,98.83645,82.588607)">
      <rect
         style="fill:#c8c8c8;fill-opacity:1;stroke-width:0.107816"
         id="rect1-1-6-8"
         width="34.062988"
         height="34.062988"
         x="157.69283"
         y="35.45472"
         transform="matrix(0.89442719,0.4472136,-0.89442719,0.4472136,0,0)" />
      <rect
         style="fill:#646464;fill-opacity:1;stroke-width:0.094211"
         id="rect2-1-0"
         width="34.03149"
         height="6.0802808"
         x="88.201355"
         y="62.109825"
         transform="matrix(0.89415698,0.4477536,0,1,0,0)" />
      <rect
         style="fill:#969696;fill-opacity:1;stroke-width:0.094211"
         id="rect2-3-8-4"
         width="34.03149"
         height="6.0802808"
         x="-156.2384"
         y="171.54012"
         transform="matrix(-0.89415698,0.4477536,0,1,0,0)" />
    </g>
    <g
       id="g9-4-5-5-6"
       transform="matrix(0.07688435,0,0,0.07688435,84.159367,84.904699)">
      <rect
         style="fill:#c8c8c8;fill-opacity:1;stroke-width:0.107816"
         id="rect1-1-6-8-2-4-87"
         width="34.062988"
         height="34.062988"
         x="157.69283"
         y="35.45472"
         transform="matrix(0.89442719,0.4472136,-0.89442719,0.4472136,0,0)" />
      <rect
         style="fill:#646464;fill-opacity:1;stroke-width:0.094211"
         id="rect2-1-0-9-4-9"
         width="34.03149"
         height="6.0802808"
         x="88.201355"
         y="62.109825"
         transform="matrix(0.89415698,0.4477536,0,1,0,0)" />
      <rect
         style="fill:#969696;fill-opacity:1;stroke-width:0.094211"
         id="rect2-3-8-4-0-9-0"
         width="34.03149"
         height="6.0802808"
         x="-156.2384"
         y="171.54012"
         transform="matrix(-0.89415698,0.4477536,0,1,0,0)" />
    </g>
    <g
       id="g9-4-5-5-2"
       transform="matrix(0.07688435,0,0,0.07688435,141.04478,72.998449)">
      <rect
         style="fill:#c8c8c8;fill-opacity:1;stroke-width:0.107816"
         id="rect1-1-6-8-2-4-6"
         width="34.062988"
         height="34.062988"
         x="157.69283"
         y="35.45472"
         transform="matrix(0.89442719,0.4472136,-0.89442719,0.4472136,0,0)" />
      <rect
         style="fill:#646464;fill-opacity:1;stroke-width:0.094211"
         id="rect2-1-0-9-4-4"
         width="34.03149"
         height="6.0802808"
         x="88.201355"
         y="62.109825"
         transform="matrix(0.89415698,0.4477536,0,1,0,0)" />
      <rect
         style="fill:#969696;fill-opacity:1;stroke-width:0.094211"
         id="rect2-3-8-4-0-9-1"
         width="34.03149"
         height="6.0802808"
         x="-156.2384"
         y="171.54012"
         transform="matrix(-0.89415698,0.4477536,0,1,0,0)" />
    </g>
    <g
       id="g9-4-5-5-28"
       transform="matrix(0.07688435,0,0,0.07688435,129.13853,60.563033)">
      <rect
         style="fill:#c8c8c8;fill-opacity:1;stroke-width:0.107816"
         id="rect1-1-6-8-2-4-8"
         width="34.062988"
         height="34.062988"
         x="157.69283"
         y="35.45472"
         transform="matrix(0.89442719,0.4472136,-0.89442719,0.4472136,0,0)" />
      <rect
         style="fill:#646464;fill-opacity:1;stroke-width:0.094211"
         id="rect2-1-0-9-4-8"
         width="34.03149"
         height="6.0802808"
         x="88.201355"
         y="62.109825"
         transform="matrix(0.89415698,0.4477536,0,1,0,0)" />
      <rect
         style="fill:#969696;fill-opacity:1;stroke-width:0.094211"
         id="rect2-3-8-4-0-9-6"
         width="34.03149"
         height="6.0802808"
         x="-156.2384"
         y="171.54012"
         transform="matrix(-0.89415698,0.4477536,0,1,0,0)" />
    </g>
    <g
       id="g9-4-5-5-3"
       transform="matrix(0.07688435,0,0,0.07688435,73.840617,78.819283)">
      <rect
         style="fill:#c8c8c8;fill-opacity:1;stroke-width:0.107816"
         id="rect1-1-6-8-2-4-38"
         width="34.062988"
         height="34.062988"
         x="157.69283"
         y="35.45472"
         transform="matrix(0.89442719,0.4472136,-0.89442719,0.4472136,0,0)" />
      <rect
         style="fill:#646464;fill-opacity:1;stroke-width:0.094211"
         id="rect2-1-0-9-4-0"
         width="34.03149"
         height="6.0802808"
         x="88.201355"
         y="62.109825"
         transform="matrix(0.89415698,0.4477536,0,1,0,0)" />
      <rect
         style="fill:#969696;fill-opacity:1;stroke-width:0.094211"
         id="rect2-3-8-4-0-9-47"
         width="34.03149"
         height="6.0802808"
         x="-156.2384"
         y="171.54012"
         transform="matrix(-0.89415698,0.4477536,0,1,0,0)" />
    </g>
    <g
       id="g168-0"
       transform="matrix(0.93756019,0.50439694,-1.4281146,0.55162036,207.83007,66.743106)">
      <text
         xml:space="preserve"
         style="font-size:6.67878px;writing-mode:lr-tb;direction:ltr;fill:#404040;fill-opacity:1;stroke-width:0.118034;stroke-dasharray:none"
         x="-48.545242"
         y="48.563366"
         id="text168-5"><tspan
           sodipodi:role="line"
           id="tspan168-9"
           style="font-style:normal;font-variant:normal;font-weight:800;font-stretch:normal;font-size:6.67878px;font-family:'JetBrains Mono';-inkscape-font-specification:'JetBrains Mono Ultra-Bold';fill:#404040;fill-opacity:1;stroke-width:0.118034"
           x="-48.545242"
           y="48.563366">VEMCODE</tspan></text>
      <ellipse
         style="fill:#404040;fill-opacity:1;stroke-width:0.172035;stroke-dasharray:none"
         id="path168"
         cx="-60.271503"
         cy="-1.1951033"
         transform="matrix(0.78062288,-0.62500233,0.82884382,0.55948005,0,0)"
         rx="0.97850364"
         ry="0.93744606" />
    </g>
    <rect
       style="fill:#494949;fill-opacity:1;stroke-width:0.122378;stroke-dasharray:none"
       id="rect169"
       width="30.629892"
       height="0.52265596"
       x="122.84054"
       y="20.46813"
       transform="matrix(0.88350703,0.4684179,-0.7842947,0.62038845,0,0)" />
    <g
       id="g8-4"
       transform="matrix(0.7708124,0,0,0.7708124,23.84372,84.071938)">
      <rect
         style="fill:#ffd1ff;fill-opacity:1;stroke-width:0.209072;stroke-dasharray:none"
         id="rect1-1-8"
         width="66.084831"
         height="66.084831"
         x="146.24355"
         y="24.575661"
         transform="matrix(0.89442719,0.4472136,-0.89442719,0.4472136,0,0)" />
      <rect
         style="fill:#8c5aa0;fill-opacity:1;stroke-width:0.195726"
         id="rect2-0"
         width="66.057922"
         height="13.520124"
         x="56.230804"
         y="80.563423"
         transform="matrix(0.893694,0.44867699,0,1,0,0)" />
      <rect
         style="fill:#e9b8fc;fill-opacity:1;stroke-width:0.196001"
         id="rect2-37-8"
         width="65.972672"
         height="13.575694"
         x="-188.07317"
         y="189.78409"
         transform="matrix(-0.89484877,0.44636945,0,1,0,0)" />
    </g>
    <g
       id="g9-1-3-5"
       transform="matrix(1.0084829,0,0,1.0084829,-2.2754434,51.286147)">
      <rect
         style="fill:#c8c8c8;fill-opacity:1;stroke-width:0.107816"
         id="rect1-1-6-0-5-6"
         width="34.062988"
         height="34.062988"
         x="157.69283"
         y="35.45472"
         transform="matrix(0.89442719,0.4472136,-0.89442719,0.4472136,0,0)" />
      <rect
         style="fill:#646464;fill-opacity:1;stroke-width:0.141058"
         id="rect2-1-2-6-93"
         width="34.144718"
         height="13.585376"
         x="88.49482"
         y="61.241215"
         transform="matrix(0.89119181,0.45362668,0,1,0,0)" />
      <rect
         style="fill:#969696;fill-opacity:1;stroke-width:0.141058"
         id="rect2-1-2-1-2-7"
         width="34.144718"
         height="13.585376"
         x="-156.63564"
         y="172.41902"
         transform="matrix(-0.89119181,0.45362668,0,1,0,0)" />
    </g>
    <text
       xml:space="preserve"
       style="font-style:normal;font-variant:normal;font-weight:800;font-stretch:normal;font-size:33.4671px;font-family:'JetBrains Mono';-inkscape-font-specification:'JetBrains Mono, Ultra-Bold';font-variant-ligatures:normal;font-variant-caps:normal;font-variant-numeric:normal;font-variant-east-asian:normal;writing-mode:lr-tb;direction:ltr;fill:#404040;fill-opacity:1;stroke-width:0.591466;stroke-dasharray:none"
       x="210.62054"
       y="103.71936"
       id="text168-5-6"
       transform="matrix(0.95876985,0.51555591,-1.1349594,0.43270549,0,0)"><tspan
         sodipodi:role="line"
         id="tspan169"
         x="210.62054"
         y="103.71936"
         style="stroke-width:0.591466">V</tspan></text>
    <g
       id="g9-1-3"
       transform="matrix(0.15661427,0,0,0.15661427,85.597341,83.396074)">
      <rect
         style="fill:#c8c8c8;fill-opacity:1;stroke-width:0.107816"
         id="rect1-1-6-0-5"
         width="34.062988"
         height="34.062988"
         x="157.69283"
         y="35.45472"
         transform="matrix(0.89442719,0.4472136,-0.89442719,0.4472136,0,0)" />
      <rect
         style="fill:#646464;fill-opacity:1;stroke-width:0.141058"
         id="rect2-1-2-6"
         width="34.144718"
         height="13.585376"
         x="88.49482"
         y="61.241215"
         transform="matrix(0.89119181,0.45362668,0,1,0,0)" />
      <rect
         style="fill:#969696;fill-opacity:1;stroke-width:0.141058"
         id="rect2-1-2-1-2"
         width="34.144718"
         height="13.585376"
         x="-156.63564"
         y="172.41902"
         transform="matrix(-0.89119181,0.45362668,0,1,0,0)" />
    </g>
    <g
       id="g9-4-5-5-3-1"
       transform="matrix(0.07688435,0,0,0.07688435,66.167698,79.877616)">
      <rect
         style="fill:#c8c8c8;fill-opacity:1;stroke-width:0.107816"
         id="rect1-1-6-8-2-4-38-8"
         width="34.062988"
         height="34.062988"
         x="157.69283"
         y="35.45472"
         transform="matrix(0.89442719,0.4472136,-0.89442719,0.4472136,0,0)" />
      <rect
         style="fill:#646464;fill-opacity:1;stroke-width:0.094211"
         id="rect2-1-0-9-4-0-7"
         width="34.03149"
         height="6.0802808"
         x="88.201355"
         y="62.109825"
         transform="matrix(0.89415698,0.4477536,0,1,0,0)" />
      <rect
         style="fill:#969696;fill-opacity:1;stroke-width:0.094211"
         id="rect2-3-8-4-0-9-47-9"
         width="34.03149"
         height="6.0802808"
         x="-156.2384"
         y="171.54012"
         transform="matrix(-0.89415698,0.4477536,0,1,0,0)" />
    </g>
  </g>
</svg>
